<?xml version="1.0" encoding="UTF-8" standalone="no"?>
<!-- Created with Inkscape (http://www.inkscape.org/) -->

<svg
   width="38.139999mm"
   height="45.007mm"
   viewBox="0 0 38.140003 45.007"
   version="1.1"
   id="svg1"
   xmlns="http://www.w3.org/2000/svg"
   xmlns:svg="http://www.w3.org/2000/svg">
  <defs
     id="defs1" />
  <g
     id="layer1"
     transform="translate(-14.101454,-11.266682)">
    <g
       id="g20"
       transform="matrix(1.0238918,0,0,1.0238918,0.10654104,-0.27932696)">
      <path
         style="font-weight:bold;font-size:86.6667px;line-height:0.75;font-family:'PP Rader';-inkscape-font-specification:'PP Rader Bold';letter-spacing:0px;word-spacing:1px;text-orientation:upright;white-space:pre;fill:hsl(var(--text))"
         d="M 91.140632,57.600661 V 104.65797 H 102.56642 V 57.177484 c 0,-2.79297 2.11588,-4.866538 4.86654,-4.866538 H 118.5202 V 42.620187 H 75.186849 v 9.690759 h 10.664067 c 3.046876,0 5.289716,2.242839 5.289716,5.289715 z m 42.063818,5.755211 V 42.620187 h -11.00261 v 62.037783 h 11.00261 V 75.204835 c 0,-3.216147 1.9043,-5.289715 4.82422,-5.289715 2.96224,0 4.86654,2.073568 4.86654,5.289715 v 29.453135 h 11.00261 V 73.63908 c 0,-7.913415 -5.03581,-13.076178 -12.22982,-13.076178 -3.42774,0 -6.30534,1.015626 -8.46355,2.79297 z m 42.14846,42.148458 c 9.39453,0 15.61524,-5.33204 15.61524,-13.414722 v -2.539064 h -10.74871 v 0.973308 c 0,3.131512 -1.90429,5.20508 -4.86653,5.20508 -2.91993,0 -4.82423,-2.073568 -4.82423,-5.20508 V 88.70419 c 0,-1.650391 0.93099,-2.581381 2.58139,-2.581381 h 17.85808 V 75.204835 c 0,-9.648441 -6.22071,-15.022792 -15.61524,-15.022792 -9.60613,0 -16.03842,5.374351 -16.03842,13.457037 v 18.450528 c 0,8.082682 6.43229,13.414722 16.03842,13.414722 z m -4.82423,-29.45314 v -0.846355 c 0,-3.216147 1.9043,-5.289715 4.82423,-5.289715 2.96224,0 4.86653,2.073568 4.86653,5.289715 v 0.846355 c 0,1.650391 -0.9733,2.623699 -2.58138,2.623699 h -4.52799 c -1.6504,0 -2.58139,-0.973308 -2.58139,-2.623699 z"
         id="text2"
         transform="matrix(0.26792664,0,0,0.26792664,-0.27370796,-0.14249229)"
         aria-label="The&#10;&#10;" />
      <path
         d="m 271.44922,124.51729 v 27.51044 h 6.6797 V 124.2699 c 0,-1.63282 1.23698,-2.84506 2.84505,-2.84506 h 6.48178 v -5.66536 H 262.1224 v 5.66536 h 6.23437 c 1.78126,0 3.09245,1.3112 3.09245,3.09245 z m 30.87502,28.17841 c 8.51043,0 14.17579,-5.26954 14.17579,-13.23569 v -11.20704 c 0,-7.89193 -5.66536,-13.16146 -14.17579,-13.16146 -8.51042,0 -14.20053,5.26953 -14.20053,13.16146 v 11.20704 c 0,7.96615 5.69011,13.23569 14.20053,13.23569 z m -7.49609,-13.681 v -10.2422 c 0,-4.65104 2.99349,-7.74349 7.49609,-7.74349 4.50261,0 7.4961,3.09245 7.4961,7.74349 v 10.2422 c 0,4.65104 -2.99349,7.74349 -7.4961,7.74349 -4.5026,0 -7.49609,-3.09245 -7.49609,-7.74349 z m 37.65366,-23.25522 h -11.92448 v 36.26825 h 11.92448 c 8.18881,0 14.17579,-5.83855 14.17579,-13.73048 v -8.85678 c 0,-7.91667 -5.98698,-13.68099 -14.17579,-13.68099 z m -5.22005,28.37631 v -20.48438 c 0,-1.3112 1.11328,-2.22657 2.57292,-2.22657 h 1.63281 c 4.89844,0 8.51042,3.58724 8.51042,8.51043 v 7.91667 c 0,4.89844 -3.61198,8.51042 -8.51042,8.51042 h -1.63281 c -1.45964,0 -2.57292,-0.91537 -2.57292,-2.22657 z m 36.76304,8.55991 c 8.51042,0 14.17579,-5.26954 14.17579,-13.23569 v -11.20704 c 0,-7.89193 -5.66537,-13.16146 -14.17579,-13.16146 -8.51042,0 -14.20053,5.26953 -14.20053,13.16146 v 11.20704 c 0,7.96615 5.69011,13.23569 14.20053,13.23569 z m -7.4961,-13.681 v -10.2422 c 0,-4.65104 2.99349,-7.74349 7.4961,-7.74349 4.50261,0 7.4961,3.09245 7.4961,7.74349 v 10.2422 c 0,4.65104 -2.99349,7.74349 -7.4961,7.74349 -4.50261,0 -7.4961,-3.09245 -7.4961,-7.74349 z"
         id="text16"
         style="font-weight:bold;font-size:50.6667px;line-height:0.75;font-family:'PP Rader';-inkscape-font-specification:'PP Rader Bold';letter-spacing:0px;word-spacing:1px;text-orientation:upright;white-space:pre;fill:hsl(var(--primary)"
         transform="matrix(0.26717703,0,0,0.26717703,-50.158498,-0.61398383)"
         aria-label="TODO" />
      <path
         d="m 259.13477,211.51279 h 29.84375 v -7.15625 h -17.875 c -2.21875,0 -3.5,-1.28125 -3.5,-3.53125 v -35.125 h -8.46875 z m 33.25,-45.8125 v 45.8125 h 8.46875 v -45.8125 z m 29.8125,46.375 c 10.375,0 16.65625,-5.4375 16.65625,-14.59375 0,-8.5 -5.375,-13.28125 -14.28125,-13.5 l -3.21875,-0.0625 c -4.4375,-0.0625 -7,-2.03125 -7,-5.5 0,-3.59375 2.875,-5.875 7.28125,-5.875 5.03125,0 8.0625,2.625 8.0625,7.09375 v 1.84375 h 8.4375 v -2.03125 c 0,-9.03125 -6.0625,-14.40625 -16.4375,-14.40625 -9.5,0 -15.78125,5.375 -15.78125,13.625 0,8.34375 5.3125,13.0625 14.1875,13.25 l 3.1875,0.0625 c 4.53125,0.0625 7.15625,2.1875 7.09375,6.03125 -0.0625,4.15625 -3.0625,6.65625 -8.0625,6.65625 -5.3125,0 -8.4375,-3.125 -8.4375,-8.4375 v -1.9375 h -8.4375 v 2.125 c 0,9.84375 6.1875,15.65625 16.75,15.65625 z m 28.75,-35.3125 v 34.75 h 8.4375 v -35.0625 c 0,-2.0625 1.5625,-3.59375 3.59375,-3.59375 h 8.1875 v -7.15625 h -32 v 7.15625 h 7.875 c 2.25,0 3.90625,1.65625 3.90625,3.90625 z"
         id="text18"
         style="font-weight:bold;font-size:64px;line-height:0.75;font-family:'PP Rader';-inkscape-font-specification:'PP Rader Bold';letter-spacing:0px;word-spacing:1px;text-orientation:upright;white-space:pre;fill:hsl(var(--primary)"
         transform="matrix(0.27725246,0,0,0.27725246,-51.994922,-3.5651729)"
         aria-label="LIST" />
    </g>
    <path
       style="font-weight:bold;font-size:26.6667px;line-height:20px;font-family:'PP Rader';-inkscape-font-specification:'PP Rader Bold';letter-spacing:0px;word-spacing:0px;writing-mode:vertical-lr;text-orientation:upright;white-space:pre;fill:hsl(var(--primary)"
       d="m 233.86133,58.462365 -3.89323,15.755228 c -0.0391,0.169271 -0.10417,0.351563 -0.33854,0.351563 -0.22136,0 -0.3125,-0.182292 -0.35157,-0.351563 l -3.89323,-15.755228 h -3.81511 l 5.06511,19.088566 h 5.8073 l 5.07813,-19.088566 z M 223.5358,102.00409 h 12.43491 v -2.981779 h -7.44793 c -0.89843,0 -1.45833,-0.559897 -1.45833,-1.471356 v -4.856777 c 0,-0.898439 0.5599,-1.458335 1.45833,-1.458335 h 7.44793 v -2.994796 h -7.57813 c -0.82032,0 -1.32813,-0.455729 -1.32813,-1.197918 0,-0.716147 0.50781,-1.145835 1.32813,-1.145835 h 7.57813 V 82.91552 H 223.5358 Z m -0.90495,24.42711 h 3.52865 v -9.81772 c 0,-0.39063 0.10417,-0.95052 0.79427,-0.95052 0.58594,0 0.8724,0.55989 0.98959,0.76823 l 5.41667,10.00001 h 4.07553 l -5.36459,-9.67449 c -0.0911,-0.16927 -0.15625,-0.35157 -0.15625,-0.50782 0,-0.32552 0.24739,-0.58593 0.76823,-0.58593 h 0.72916 c 2.42188,0 4.1797,-1.77084 4.1797,-4.16668 0,-2.39583 -1.75782,-4.15365 -4.1797,-4.15365 h -10.78126 z m 3.52865,-14.93492 c 0,-0.71614 0.50781,-1.17187 1.35417,-1.17187 h 5.20834 c 0.84635,0 1.35417,0.45573 1.35417,1.17187 0,0.71615 -0.50782,1.17188 -1.35417,1.17188 h -5.20834 c -0.84636,0 -1.35417,-0.45573 -1.35417,-1.17188 z m 1.62761,24.88284 v 14.47919 h 3.51563 v -14.6094 c 0,-0.85937 0.65104,-1.49739 1.49739,-1.49739 h 3.41147 v -2.98178 h -13.33335 v 2.98178 h 3.28125 c 0.9375,0 1.62761,0.6901 1.62761,1.6276 z m -0.007,19.81774 v 19.08856 h 3.52865 v -19.08856 z m 1.77083,43.51568 c 4.47917,0 7.46095,-2.77344 7.46095,-7.09636 v -1.62761 h -3.51563 v 1.62761 c 0,2.34375 -1.57552,3.97136 -3.94532,3.97136 -2.36979,0 -3.94532,-1.62761 -3.94532,-4.07553 v -5.39063 c 0,-2.44792 1.57553,-4.07553 3.94532,-4.07553 2.3698,0 3.94532,1.62761 3.94532,3.94532 v 1.65365 h 3.51563 v -1.65365 c 0,-4.29688 -2.98178,-7.07032 -7.46095,-7.07032 -4.47917,0 -7.47397,2.77344 -7.47397,6.92709 v 5.89845 c 0,4.19271 2.9948,6.96615 7.47397,6.96615 z m -7.90365,24.42711 h 3.58073 l 0.36458,-1.44532 c 0.0391,-0.1302 0.32553,-1.25 1.65365,-1.25 h 4.42709 c 1.31511,0 1.62761,1.1198 1.65365,1.25 l 0.3776,1.44532 h 3.73699 l -5.06511,-19.08857 h -5.65105 z m 5.52084,-7.3047 1.95312,-8.50261 c 0.026,-0.16927 0.10417,-0.35157 0.33855,-0.35157 0.22135,0 0.32552,0.1823 0.35156,0.35157 l 1.95313,8.50261 c 0.0521,0.26042 0.28646,1.62761 -1.28907,1.62761 h -2.01823 c -1.57552,0 -1.34115,-1.36719 -1.28906,-1.62761 z m -3.24871,31.73182 h 12.43492 V 245.585 h -7.44793 c -0.92448,0 -1.45834,-0.53386 -1.45834,-1.47136 v -14.63543 h -3.52865 z"
       id="text19"
       transform="matrix(0.23588267,0,0,0.23588267,-38.162987,-2.5235766)"
       aria-label="VERTICAL" />
  </g>
</svg>
